<svg width="44" height="15" viewBox="0 0 44 15" fill="none" xmlns="http://www.w3.org/2000/svg">
<path d="M9.52 6.74C10.3333 6.96667 10.9733 7.38 11.44 7.98C11.9067 8.56667 12.14 9.31333 12.14 10.22C12.14 11.4333 11.68 12.3667 10.76 13.02C9.85333 13.6733 8.52667 14 6.78 14H0.1V-9.53674e-07H6.38C7.98 -9.53674e-07 9.21333 0.319999 10.08 0.96C10.96 1.6 11.4 2.48667 11.4 3.62C11.4 4.35333 11.2267 4.98667 10.88 5.52C10.5467 6.05333 10.0933 6.46 9.52 6.74ZM2.1 1.62V6.1H6.2C7.22667 6.1 8.01333 5.91333 8.56 5.54C9.12 5.15333 9.4 4.59333 9.4 3.86C9.4 3.12667 9.12 2.57333 8.56 2.2C8.01333 1.81333 7.22667 1.62 6.2 1.62H2.1ZM6.7 12.38C7.83333 12.38 8.68667 12.1933 9.26 11.82C9.83333 11.4467 10.12 10.86 10.12 10.06C10.12 8.5 8.98 7.72 6.7 7.72H2.1V12.38H6.7ZM24.5367 8.76C24.5367 8.90667 24.5234 9.1 24.4967 9.34H15.8967C16.0167 10.2733 16.4234 11.0267 17.1167 11.6C17.8234 12.16 18.6967 12.44 19.7367 12.44C21.0034 12.44 22.0234 12.0133 22.7967 11.16L23.8567 12.4C23.3767 12.96 22.7767 13.3867 22.0567 13.68C21.3501 13.9733 20.5567 14.12 19.6767 14.12C18.5567 14.12 17.5634 13.8933 16.6967 13.44C15.8301 12.9733 15.1567 12.3267 14.6767 11.5C14.2101 10.6733 13.9767 9.74 13.9767 8.7C13.9767 7.67333 14.2034 6.74667 14.6567 5.92C15.1234 5.09333 15.7567 4.45333 16.5567 4C17.3701 3.53333 18.2834 3.3 19.2967 3.3C20.3101 3.3 21.2101 3.53333 21.9967 4C22.7967 4.45333 23.4167 5.09333 23.8567 5.92C24.3101 6.74667 24.5367 7.69333 24.5367 8.76ZM19.2967 4.92C18.3767 4.92 17.6034 5.2 16.9767 5.76C16.3634 6.32 16.0034 7.05333 15.8967 7.96H22.6967C22.5901 7.06667 22.2234 6.34 21.5967 5.78C20.9834 5.20667 20.2167 4.92 19.2967 4.92ZM33.1628 13.38C32.8828 13.62 32.5361 13.8067 32.1228 13.94C31.7095 14.06 31.2828 14.12 30.8428 14.12C29.7761 14.12 28.9495 13.8333 28.3628 13.26C27.7761 12.6867 27.4828 11.8667 27.4828 10.8V4.98H25.6828V3.4H27.4828V1.08H29.4028V3.4H32.4428V4.98H29.4028V10.72C29.4028 11.2933 29.5428 11.7333 29.8228 12.04C30.1161 12.3467 30.5295 12.5 31.0628 12.5C31.6495 12.5 32.1495 12.3333 32.5628 12L33.1628 13.38ZM39.3441 3.3C40.8107 3.3 41.9307 3.66 42.7041 4.38C43.4907 5.1 43.8841 6.17333 43.8841 7.6V14H42.0641V12.6C41.7441 13.0933 41.2841 13.4733 40.6841 13.74C40.0974 13.9933 39.3974 14.12 38.5841 14.12C37.3974 14.12 36.4441 13.8333 35.7241 13.26C35.0174 12.6867 34.6641 11.9333 34.6641 11C34.6641 10.0667 35.0041 9.32 35.6841 8.76C36.3641 8.18667 37.4441 7.9 38.9241 7.9H41.9641V7.52C41.9641 6.69333 41.7241 6.06 41.2441 5.62C40.7641 5.18 40.0574 4.96 39.1241 4.96C38.4974 4.96 37.8841 5.06667 37.2841 5.28C36.6841 5.48 36.1774 5.75333 35.7641 6.1L34.9641 4.66C35.5107 4.22 36.1641 3.88667 36.9241 3.66C37.6841 3.42 38.4907 3.3 39.3441 3.3ZM38.9041 12.64C39.6374 12.64 40.2707 12.48 40.8041 12.16C41.3374 11.8267 41.7241 11.36 41.9641 10.76V9.28H39.0041C37.3774 9.28 36.5641 9.82667 36.5641 10.92C36.5641 11.4533 36.7707 11.8733 37.1841 12.18C37.5974 12.4867 38.1707 12.64 38.9041 12.64Z" fill="#4D008A"/>
</svg>
