<svg width="1400" height="364" viewBox="0 0 1400 364" fill="none" xmlns="http://www.w3.org/2000/svg">
<g filter="url(#filter0_f_409_111)">
<rect x="1174.1" y="350.244" width="4" height="92" transform="rotate(119.912 1174.1 350.244)" fill="white"/>
</g>
<g filter="url(#filter1_f_409_111)">
<rect x="1174.1" y="350.244" width="4" height="92" transform="rotate(119.912 1174.1 350.244)" fill="white"/>
</g>
<g filter="url(#filter2_f_409_111)">
<rect x="719.373" y="356.049" width="4" height="60" transform="rotate(121.258 719.373 356.049)" fill="white"/>
</g>
<g filter="url(#filter3_f_409_111)">
<circle cx="661.061" cy="322.992" r="8.5" transform="rotate(121.258 661.061 322.992)" stroke="white" stroke-width="3"/>
</g>
<g filter="url(#filter4_f_409_111)">
<rect x="719.373" y="356.049" width="4" height="60" transform="rotate(121.258 719.373 356.049)" fill="white"/>
</g>
<path d="M596.59 161.52V165H576.27V137H596.03V140.48H580.27V149.08H594.31V152.48H580.27V161.52H596.59ZM622.234 135.32V165H618.554V161.64C617.7 162.813 616.62 163.707 615.314 164.32C614.007 164.933 612.567 165.24 610.994 165.24C608.94 165.24 607.1 164.787 605.474 163.88C603.847 162.973 602.567 161.707 601.634 160.08C600.727 158.427 600.274 156.533 600.274 154.4C600.274 152.267 600.727 150.387 601.634 148.76C602.567 147.133 603.847 145.867 605.474 144.96C607.1 144.053 608.94 143.6 610.994 143.6C612.514 143.6 613.914 143.893 615.194 144.48C616.474 145.04 617.54 145.88 618.394 147V135.32H622.234ZM611.314 161.88C612.647 161.88 613.86 161.573 614.954 160.96C616.047 160.32 616.9 159.44 617.514 158.32C618.127 157.173 618.434 155.867 618.434 154.4C618.434 152.933 618.127 151.64 617.514 150.52C616.9 149.373 616.047 148.493 614.954 147.88C613.86 147.267 612.647 146.96 611.314 146.96C609.954 146.96 608.727 147.267 607.634 147.88C606.567 148.493 605.714 149.373 605.074 150.52C604.46 151.64 604.154 152.933 604.154 154.4C604.154 155.867 604.46 157.173 605.074 158.32C605.714 159.44 606.567 160.32 607.634 160.96C608.727 161.573 609.954 161.88 611.314 161.88ZM649.259 143.8V165H645.619V161.8C644.846 162.893 643.819 163.747 642.539 164.36C641.286 164.947 639.913 165.24 638.419 165.24C635.593 165.24 633.366 164.467 631.739 162.92C630.113 161.347 629.299 159.04 629.299 156V143.8H633.139V155.56C633.139 157.613 633.633 159.173 634.619 160.24C635.606 161.28 637.019 161.8 638.859 161.8C640.886 161.8 642.486 161.187 643.659 159.96C644.833 158.733 645.419 157 645.419 154.76V143.8H649.259Z" fill="white"/>
<path d="M620.48 194.16C619.067 194.16 617.793 193.853 616.66 193.24C615.527 192.613 614.633 191.753 613.98 190.66C613.34 189.567 613.02 188.347 613.02 187C613.02 185.653 613.34 184.433 613.98 183.34C614.633 182.247 615.527 181.393 616.66 180.78C617.793 180.153 619.067 179.84 620.48 179.84C621.88 179.84 623.147 180.153 624.28 180.78C625.413 181.393 626.3 182.247 626.94 183.34C627.58 184.42 627.9 185.64 627.9 187C627.9 188.36 627.58 189.587 626.94 190.68C626.3 191.76 625.413 192.613 624.28 193.24C623.147 193.853 621.88 194.16 620.48 194.16ZM620.48 192.38C621.507 192.38 622.427 192.147 623.24 191.68C624.067 191.213 624.713 190.573 625.18 189.76C625.66 188.933 625.9 188.013 625.9 187C625.9 185.987 625.66 185.073 625.18 184.26C624.713 183.433 624.067 182.787 623.24 182.32C622.427 181.853 621.507 181.62 620.48 181.62C619.453 181.62 618.52 181.853 617.68 182.32C616.853 182.787 616.2 183.433 615.72 184.26C615.253 185.073 615.02 185.987 615.02 187C615.02 188.013 615.253 188.933 615.72 189.76C616.2 190.573 616.853 191.213 617.68 191.68C618.52 192.147 619.453 192.38 620.48 192.38ZM636.213 183.76C637.2 183.76 638.08 183.98 638.853 184.42C639.626 184.86 640.226 185.473 640.653 186.26C641.093 187.033 641.313 187.92 641.313 188.92C641.313 189.947 641.08 190.86 640.613 191.66C640.16 192.447 639.513 193.06 638.673 193.5C637.846 193.94 636.9 194.16 635.833 194.16C634.033 194.16 632.64 193.547 631.653 192.32C630.68 191.08 630.193 189.34 630.193 187.1C630.193 184.927 630.64 183.227 631.533 182C632.426 180.76 633.793 179.94 635.633 179.54L640.473 178.46L640.753 180.22L636.293 181.18C634.906 181.487 633.873 182.007 633.193 182.74C632.513 183.473 632.126 184.527 632.033 185.9C632.486 185.22 633.073 184.693 633.793 184.32C634.513 183.947 635.32 183.76 636.213 183.76ZM635.873 192.56C636.553 192.56 637.153 192.407 637.673 192.1C638.206 191.793 638.62 191.373 638.913 190.84C639.206 190.293 639.353 189.673 639.353 188.98C639.353 187.927 639.033 187.08 638.393 186.44C637.753 185.8 636.913 185.48 635.873 185.48C634.833 185.48 633.986 185.8 633.333 186.44C632.693 187.08 632.373 187.927 632.373 188.98C632.373 189.673 632.52 190.293 632.813 190.84C633.12 191.373 633.54 191.793 634.073 192.1C634.606 192.407 635.206 192.56 635.873 192.56ZM653.222 183.4L648.082 195.06C647.629 196.14 647.096 196.9 646.482 197.34C645.882 197.78 645.156 198 644.302 198C643.782 198 643.276 197.913 642.782 197.74C642.302 197.58 641.902 197.34 641.582 197.02L642.402 195.58C642.949 196.1 643.582 196.36 644.302 196.36C644.769 196.36 645.156 196.233 645.462 195.98C645.782 195.74 646.069 195.32 646.322 194.72L646.662 193.98L641.982 183.4H643.982L647.682 191.88L651.342 183.4H653.222ZM663.648 183.4V194H661.728V189.72C660.581 190.253 659.441 190.52 658.308 190.52C656.988 190.52 655.968 190.213 655.248 189.6C654.528 188.987 654.168 188.067 654.168 186.84V183.4H656.088V186.72C656.088 187.453 656.315 188.007 656.768 188.38C657.235 188.753 657.881 188.94 658.708 188.94C659.641 188.94 660.648 188.707 661.728 188.24V183.4H663.648ZM671.156 183.3C672.622 183.3 673.742 183.66 674.516 184.38C675.302 185.1 675.696 186.173 675.696 187.6V194H673.876V192.6C673.556 193.093 673.096 193.473 672.496 193.74C671.909 193.993 671.209 194.12 670.396 194.12C669.209 194.12 668.256 193.833 667.536 193.26C666.829 192.687 666.476 191.933 666.476 191C666.476 190.067 666.816 189.32 667.496 188.76C668.176 188.187 669.256 187.9 670.736 187.9H673.776V187.52C673.776 186.693 673.536 186.06 673.056 185.62C672.576 185.18 671.869 184.96 670.936 184.96C670.309 184.96 669.696 185.067 669.096 185.28C668.496 185.48 667.989 185.753 667.576 186.1L666.776 184.66C667.322 184.22 667.976 183.887 668.736 183.66C669.496 183.42 670.302 183.3 671.156 183.3ZM670.716 192.64C671.449 192.64 672.082 192.48 672.616 192.16C673.149 191.827 673.536 191.36 673.776 190.76V189.28H670.816C669.189 189.28 668.376 189.827 668.376 190.92C668.376 191.453 668.582 191.873 668.996 192.18C669.409 192.487 669.982 192.64 670.716 192.64ZM687.053 185.08H683.173V194H681.253V185.08H677.373V183.4H687.053V185.08ZM693.916 187C695.263 187.013 696.29 187.32 696.996 187.92C697.703 188.52 698.056 189.367 698.056 190.46C698.056 191.607 697.67 192.493 696.896 193.12C696.136 193.733 695.043 194.033 693.616 194.02L689.016 194V183.4H690.936V186.98L693.916 187ZM693.456 192.56C694.323 192.573 694.976 192.4 695.416 192.04C695.87 191.68 696.096 191.147 696.096 190.44C696.096 189.747 695.876 189.24 695.436 188.92C695.01 188.6 694.35 188.433 693.456 188.42L690.936 188.38V192.54L693.456 192.56ZM705.14 194.12C704.06 194.12 703.093 193.887 702.24 193.42C701.4 192.953 700.74 192.313 700.26 191.5C699.78 190.673 699.54 189.74 699.54 188.7C699.54 187.66 699.78 186.733 700.26 185.92C700.74 185.093 701.4 184.453 702.24 184C703.093 183.533 704.06 183.3 705.14 183.3C706.1 183.3 706.953 183.493 707.7 183.88C708.46 184.267 709.047 184.827 709.46 185.56L708 186.5C707.667 185.993 707.253 185.613 706.76 185.36C706.267 185.107 705.72 184.98 705.12 184.98C704.427 184.98 703.8 185.133 703.24 185.44C702.693 185.747 702.26 186.187 701.94 186.76C701.633 187.32 701.48 187.967 701.48 188.7C701.48 189.447 701.633 190.107 701.94 190.68C702.26 191.24 702.693 191.673 703.24 191.98C703.8 192.287 704.427 192.44 705.12 192.44C705.72 192.44 706.267 192.313 706.76 192.06C707.253 191.807 707.667 191.427 708 190.92L709.46 191.84C709.047 192.573 708.46 193.14 707.7 193.54C706.953 193.927 706.1 194.12 705.14 194.12ZM720.114 183.4V194H718.394V190.64H715.314H715.094L712.774 194H710.714L713.294 190.38C712.494 190.14 711.881 189.747 711.454 189.2C711.027 188.64 710.814 187.947 710.814 187.12C710.814 185.907 711.227 184.987 712.054 184.36C712.881 183.72 714.021 183.4 715.474 183.4H720.114ZM712.774 187.18C712.774 187.887 712.994 188.413 713.434 188.76C713.887 189.093 714.561 189.26 715.454 189.26H718.394V185.08H715.534C713.694 185.08 712.774 185.78 712.774 187.18Z" fill="white"/>
<path d="M739.185 183.4V194H737.265V185.08H732.705L732.585 187.44C732.518 188.867 732.391 190.06 732.205 191.02C732.018 191.967 731.711 192.727 731.285 193.3C730.858 193.873 730.265 194.16 729.505 194.16C729.158 194.16 728.765 194.1 728.325 193.98L728.445 192.36C728.618 192.4 728.778 192.42 728.925 192.42C729.458 192.42 729.858 192.187 730.125 191.72C730.391 191.253 730.565 190.7 730.645 190.06C730.725 189.42 730.798 188.507 730.865 187.32L731.045 183.4H739.185ZM752.477 188.76C752.477 188.907 752.464 189.1 752.437 189.34H743.837C743.957 190.273 744.364 191.027 745.057 191.6C745.764 192.16 746.637 192.44 747.677 192.44C748.944 192.44 749.964 192.013 750.737 191.16L751.797 192.4C751.317 192.96 750.717 193.387 749.997 193.68C749.29 193.973 748.497 194.12 747.617 194.12C746.497 194.12 745.504 193.893 744.637 193.44C743.77 192.973 743.097 192.327 742.617 191.5C742.15 190.673 741.917 189.74 741.917 188.7C741.917 187.673 742.144 186.747 742.597 185.92C743.064 185.093 743.697 184.453 744.497 184C745.31 183.533 746.224 183.3 747.237 183.3C748.25 183.3 749.15 183.533 749.937 184C750.737 184.453 751.357 185.093 751.797 185.92C752.25 186.747 752.477 187.693 752.477 188.76ZM747.237 184.92C746.317 184.92 745.544 185.2 744.917 185.76C744.304 186.32 743.944 187.053 743.837 187.96H750.637C750.53 187.067 750.164 186.34 749.537 185.78C748.924 185.207 748.157 184.92 747.237 184.92ZM763.256 185.08H757.376V194H755.456V183.4H763.256V185.08ZM769.341 189.52H767.141V194H765.221V183.4H767.141V187.88H769.381L772.821 183.4H774.881L770.861 188.5L775.161 194H772.901L769.341 189.52ZM781.363 194.12C780.31 194.12 779.363 193.887 778.523 193.42C777.683 192.953 777.023 192.313 776.543 191.5C776.076 190.673 775.843 189.74 775.843 188.7C775.843 187.66 776.076 186.733 776.543 185.92C777.023 185.093 777.683 184.453 778.523 184C779.363 183.533 780.31 183.3 781.363 183.3C782.416 183.3 783.356 183.533 784.183 184C785.023 184.453 785.676 185.093 786.143 185.92C786.623 186.733 786.863 187.66 786.863 188.7C786.863 189.74 786.623 190.673 786.143 191.5C785.676 192.313 785.023 192.953 784.183 193.42C783.356 193.887 782.416 194.12 781.363 194.12ZM781.363 192.44C782.043 192.44 782.65 192.287 783.183 191.98C783.73 191.66 784.156 191.22 784.463 190.66C784.77 190.087 784.923 189.433 784.923 188.7C784.923 187.967 784.77 187.32 784.463 186.76C784.156 186.187 783.73 185.747 783.183 185.44C782.65 185.133 782.043 184.98 781.363 184.98C780.683 184.98 780.07 185.133 779.523 185.44C778.99 185.747 778.563 186.187 778.243 186.76C777.936 187.32 777.783 187.967 777.783 188.7C777.783 189.433 777.936 190.087 778.243 190.66C778.563 191.22 778.99 191.66 779.523 191.98C780.07 192.287 780.683 192.44 781.363 192.44Z" fill="url(#paint0_linear_409_111)"/>
<g filter="url(#filter5_f_409_111)">
<path d="M617.045 195.164C615.596 195.164 614.291 194.85 613.129 194.221C611.967 193.579 611.052 192.697 610.382 191.576C609.726 190.456 609.398 189.205 609.398 187.825C609.398 186.445 609.726 185.194 610.382 184.073C611.052 182.953 611.967 182.078 613.129 181.449C614.291 180.807 615.596 180.486 617.045 180.486C618.48 180.486 619.778 180.807 620.94 181.449C622.101 182.078 623.01 182.953 623.666 184.073C624.322 185.18 624.65 186.431 624.65 187.825C624.65 189.219 624.322 190.476 623.666 191.597C623.01 192.704 622.101 193.579 620.94 194.221C619.778 194.85 618.48 195.164 617.045 195.164ZM617.045 193.339C618.097 193.339 619.04 193.1 619.874 192.622C620.721 192.144 621.384 191.488 621.862 190.654C622.354 189.807 622.6 188.864 622.6 187.825C622.6 186.786 622.354 185.85 621.862 185.016C621.384 184.169 620.721 183.506 619.874 183.028C619.04 182.55 618.097 182.31 617.045 182.31C615.992 182.31 615.036 182.55 614.175 183.028C613.327 183.506 612.658 184.169 612.166 185.016C611.687 185.85 611.448 186.786 611.448 187.825C611.448 188.864 611.687 189.807 612.166 190.654C612.658 191.488 613.327 192.144 614.175 192.622C615.036 193.1 615.992 193.339 617.045 193.339ZM633.171 184.504C634.182 184.504 635.084 184.729 635.877 185.18C636.67 185.631 637.285 186.26 637.722 187.066C638.173 187.859 638.398 188.768 638.398 189.793C638.398 190.845 638.159 191.781 637.681 192.601C637.216 193.408 636.553 194.036 635.692 194.487C634.845 194.939 633.875 195.164 632.781 195.164C630.936 195.164 629.508 194.535 628.497 193.278C627.499 192.007 627 190.223 627 187.927C627 185.7 627.458 183.957 628.374 182.7C629.29 181.429 630.69 180.588 632.576 180.178L637.537 179.071L637.824 180.875L633.253 181.859C631.832 182.174 630.772 182.707 630.075 183.458C629.378 184.21 628.982 185.29 628.886 186.697C629.351 186 629.952 185.461 630.69 185.078C631.428 184.695 632.255 184.504 633.171 184.504ZM632.822 193.524C633.519 193.524 634.134 193.367 634.667 193.052C635.214 192.738 635.638 192.308 635.938 191.761C636.239 191.201 636.389 190.565 636.389 189.854C636.389 188.775 636.061 187.907 635.405 187.251C634.749 186.595 633.888 186.267 632.822 186.267C631.756 186.267 630.889 186.595 630.219 187.251C629.563 187.907 629.235 188.775 629.235 189.854C629.235 190.565 629.385 191.201 629.686 191.761C630 192.308 630.431 192.738 630.977 193.052C631.524 193.367 632.139 193.524 632.822 193.524ZM650.605 184.135L645.337 196.087C644.872 197.194 644.326 197.973 643.697 198.424C643.082 198.875 642.337 199.1 641.462 199.1C640.929 199.1 640.41 199.011 639.904 198.834C639.412 198.67 639.002 198.424 638.674 198.096L639.515 196.62C640.075 197.153 640.724 197.419 641.462 197.419C641.941 197.419 642.337 197.289 642.651 197.03C642.979 196.784 643.273 196.353 643.533 195.738L643.881 194.979L639.084 184.135H641.134L644.927 192.827L648.678 184.135H650.605ZM661.292 184.135V195H659.324V190.613C658.149 191.16 656.98 191.433 655.818 191.433C654.465 191.433 653.42 191.119 652.682 190.49C651.944 189.861 651.575 188.918 651.575 187.661V184.135H653.543V187.538C653.543 188.29 653.775 188.857 654.24 189.239C654.718 189.622 655.381 189.813 656.228 189.813C657.185 189.813 658.217 189.574 659.324 189.096V184.135H661.292ZM668.987 184.032C670.49 184.032 671.638 184.401 672.431 185.139C673.237 185.877 673.641 186.978 673.641 188.44V195H671.775V193.565C671.447 194.071 670.976 194.46 670.361 194.733C669.759 194.993 669.042 195.123 668.208 195.123C666.992 195.123 666.015 194.829 665.277 194.241C664.552 193.654 664.19 192.882 664.19 191.925C664.19 190.968 664.539 190.203 665.236 189.629C665.933 189.041 667.04 188.747 668.557 188.747H671.673V188.358C671.673 187.511 671.427 186.861 670.935 186.41C670.443 185.959 669.718 185.734 668.762 185.734C668.119 185.734 667.491 185.843 666.876 186.062C666.261 186.267 665.741 186.547 665.318 186.902L664.498 185.426C665.058 184.975 665.728 184.634 666.507 184.401C667.286 184.155 668.112 184.032 668.987 184.032ZM668.536 193.606C669.288 193.606 669.937 193.442 670.484 193.114C671.03 192.772 671.427 192.294 671.673 191.679V190.162H668.639C666.971 190.162 666.138 190.722 666.138 191.843C666.138 192.39 666.349 192.82 666.773 193.134C667.197 193.449 667.784 193.606 668.536 193.606ZM685.282 185.857H681.305V195H679.337V185.857H675.36V184.135H685.282V185.857ZM692.317 187.825C693.697 187.839 694.749 188.153 695.474 188.768C696.198 189.383 696.56 190.251 696.56 191.371C696.56 192.547 696.164 193.456 695.371 194.098C694.592 194.727 693.472 195.034 692.009 195.021L687.294 195V184.135H689.262V187.804L692.317 187.825ZM691.845 193.524C692.734 193.538 693.403 193.36 693.854 192.991C694.319 192.622 694.551 192.075 694.551 191.351C694.551 190.64 694.326 190.121 693.875 189.793C693.437 189.465 692.761 189.294 691.845 189.28L689.262 189.239V193.503L691.845 193.524ZM703.821 195.123C702.714 195.123 701.723 194.884 700.849 194.405C699.988 193.927 699.311 193.271 698.819 192.438C698.327 191.59 698.081 190.633 698.081 189.567C698.081 188.501 698.327 187.552 698.819 186.718C699.311 185.871 699.988 185.215 700.849 184.75C701.723 184.272 702.714 184.032 703.821 184.032C704.805 184.032 705.68 184.231 706.445 184.627C707.224 185.023 707.826 185.597 708.249 186.349L706.753 187.312C706.411 186.793 705.987 186.404 705.482 186.144C704.976 185.884 704.416 185.754 703.801 185.754C703.09 185.754 702.448 185.912 701.874 186.226C701.313 186.54 700.869 186.991 700.541 187.579C700.227 188.153 700.07 188.816 700.07 189.567C700.07 190.333 700.227 191.009 700.541 191.597C700.869 192.171 701.313 192.615 701.874 192.929C702.448 193.244 703.09 193.401 703.801 193.401C704.416 193.401 704.976 193.271 705.482 193.011C705.987 192.752 706.411 192.362 706.753 191.843L708.249 192.786C707.826 193.538 707.224 194.118 706.445 194.528C705.68 194.925 704.805 195.123 703.821 195.123ZM719.169 184.135V195H717.406V191.556H714.249H714.024L711.646 195H709.534L712.179 191.289C711.359 191.043 710.73 190.64 710.293 190.08C709.855 189.506 709.637 188.795 709.637 187.948C709.637 186.704 710.06 185.761 710.908 185.119C711.755 184.463 712.924 184.135 714.413 184.135H719.169ZM711.646 188.009C711.646 188.734 711.871 189.274 712.322 189.629C712.787 189.971 713.477 190.141 714.393 190.141H717.406V185.857H714.475C712.589 185.857 711.646 186.574 711.646 188.009ZM737.842 184.135V195H735.874V185.857H731.2L731.077 188.276C731.009 189.738 730.879 190.961 730.687 191.945C730.496 192.916 730.182 193.695 729.744 194.282C729.307 194.87 728.699 195.164 727.92 195.164C727.565 195.164 727.161 195.103 726.71 194.979L726.833 193.319C727.011 193.36 727.175 193.38 727.325 193.38C727.872 193.38 728.282 193.141 728.555 192.663C728.829 192.185 729.006 191.617 729.088 190.961C729.17 190.305 729.246 189.369 729.314 188.153L729.498 184.135H737.842ZM751.467 189.629C751.467 189.779 751.453 189.977 751.426 190.223H742.611C742.734 191.18 743.151 191.952 743.861 192.54C744.586 193.114 745.481 193.401 746.547 193.401C747.845 193.401 748.891 192.964 749.683 192.089L750.77 193.36C750.278 193.934 749.663 194.371 748.925 194.672C748.2 194.973 747.387 195.123 746.485 195.123C745.337 195.123 744.319 194.891 743.431 194.426C742.542 193.948 741.852 193.285 741.36 192.438C740.882 191.59 740.643 190.633 740.643 189.567C740.643 188.515 740.875 187.565 741.34 186.718C741.818 185.871 742.467 185.215 743.287 184.75C744.121 184.272 745.057 184.032 746.096 184.032C747.134 184.032 748.057 184.272 748.863 184.75C749.683 185.215 750.319 185.871 750.77 186.718C751.234 187.565 751.467 188.536 751.467 189.629ZM746.096 185.693C745.153 185.693 744.36 185.98 743.718 186.554C743.089 187.128 742.72 187.88 742.611 188.809H749.581C749.471 187.893 749.096 187.148 748.453 186.574C747.825 185.987 747.039 185.693 746.096 185.693ZM762.515 185.857H756.488V195H754.52V184.135H762.515V185.857ZM768.753 190.408H766.498V195H764.53V184.135H766.498V188.727H768.794L772.32 184.135H774.431L770.311 189.362L774.718 195H772.402L768.753 190.408ZM781.075 195.123C779.995 195.123 779.025 194.884 778.164 194.405C777.303 193.927 776.626 193.271 776.134 192.438C775.656 191.59 775.417 190.633 775.417 189.567C775.417 188.501 775.656 187.552 776.134 186.718C776.626 185.871 777.303 185.215 778.164 184.75C779.025 184.272 779.995 184.032 781.075 184.032C782.154 184.032 783.118 184.272 783.965 184.75C784.826 185.215 785.496 185.871 785.974 186.718C786.466 187.552 786.712 188.501 786.712 189.567C786.712 190.633 786.466 191.59 785.974 192.438C785.496 193.271 784.826 193.927 783.965 194.405C783.118 194.884 782.154 195.123 781.075 195.123ZM781.075 193.401C781.772 193.401 782.393 193.244 782.94 192.929C783.5 192.601 783.938 192.15 784.252 191.576C784.566 190.989 784.724 190.319 784.724 189.567C784.724 188.816 784.566 188.153 784.252 187.579C783.938 186.991 783.5 186.54 782.94 186.226C782.393 185.912 781.772 185.754 781.075 185.754C780.378 185.754 779.749 185.912 779.189 186.226C778.642 186.54 778.205 186.991 777.877 187.579C777.562 188.153 777.405 188.816 777.405 189.567C777.405 190.319 777.562 190.989 777.877 191.576C778.205 192.15 778.642 192.601 779.189 192.929C779.749 193.244 780.378 193.401 781.075 193.401Z" fill="white" fill-opacity="0.2"/>
</g>
<path d="M671.146 165.32C668.346 165.32 665.812 164.707 663.546 163.48C661.306 162.227 659.546 160.52 658.266 158.36C656.986 156.173 656.346 153.72 656.346 151C656.346 148.28 656.986 145.84 658.266 143.68C659.546 141.493 661.319 139.787 663.586 138.56C665.852 137.307 668.386 136.68 671.186 136.68C673.372 136.68 675.372 137.053 677.186 137.8C678.999 138.52 680.546 139.6 681.826 141.04L679.226 143.56C677.119 141.347 674.492 140.24 671.346 140.24C669.266 140.24 667.386 140.707 665.706 141.64C664.026 142.573 662.706 143.867 661.746 145.52C660.812 147.147 660.346 148.973 660.346 151C660.346 153.027 660.812 154.867 661.746 156.52C662.706 158.147 664.026 159.427 665.706 160.36C667.386 161.293 669.266 161.76 671.346 161.76C674.466 161.76 677.092 160.64 679.226 158.4L681.826 160.92C680.546 162.36 678.986 163.453 677.146 164.2C675.332 164.947 673.332 165.32 671.146 165.32ZM695.154 165.24C693.047 165.24 691.154 164.773 689.474 163.84C687.794 162.907 686.474 161.627 685.514 160C684.58 158.347 684.114 156.48 684.114 154.4C684.114 152.32 684.58 150.467 685.514 148.84C686.474 147.187 687.794 145.907 689.474 145C691.154 144.067 693.047 143.6 695.154 143.6C697.26 143.6 699.14 144.067 700.794 145C702.474 145.907 703.78 147.187 704.714 148.84C705.674 150.467 706.154 152.32 706.154 154.4C706.154 156.48 705.674 158.347 704.714 160C703.78 161.627 702.474 162.907 700.794 163.84C699.14 164.773 697.26 165.24 695.154 165.24ZM695.154 161.88C696.514 161.88 697.727 161.573 698.794 160.96C699.887 160.32 700.74 159.44 701.354 158.32C701.967 157.173 702.274 155.867 702.274 154.4C702.274 152.933 701.967 151.64 701.354 150.52C700.74 149.373 699.887 148.493 698.794 147.88C697.727 147.267 696.514 146.96 695.154 146.96C693.794 146.96 692.567 147.267 691.474 147.88C690.407 148.493 689.554 149.373 688.914 150.52C688.3 151.64 687.994 152.933 687.994 154.4C687.994 155.867 688.3 157.173 688.914 158.32C689.554 159.44 690.407 160.32 691.474 160.96C692.567 161.573 693.794 161.88 695.154 161.88ZM722.784 143.6C725.478 143.6 727.611 144.387 729.184 145.96C730.784 147.507 731.584 149.787 731.584 152.8V165H727.744V153.24C727.744 151.187 727.251 149.64 726.264 148.6C725.278 147.56 723.864 147.04 722.024 147.04C719.944 147.04 718.304 147.653 717.104 148.88C715.904 150.08 715.304 151.813 715.304 154.08V165H711.464V143.8H715.144V147C715.918 145.907 716.958 145.067 718.264 144.48C719.598 143.893 721.104 143.6 722.784 143.6ZM750.011 143.6C752.704 143.6 754.837 144.387 756.411 145.96C758.011 147.507 758.811 149.787 758.811 152.8V165H754.971V153.24C754.971 151.187 754.477 149.64 753.491 148.6C752.504 147.56 751.091 147.04 749.251 147.04C747.171 147.04 745.531 147.653 744.331 148.88C743.131 150.08 742.531 151.813 742.531 154.08V165H738.691V143.8H742.371V147C743.144 145.907 744.184 145.067 745.491 144.48C746.824 143.893 748.331 143.6 750.011 143.6ZM785.195 154.52C785.195 154.813 785.168 155.2 785.115 155.68H767.915C768.155 157.547 768.968 159.053 770.355 160.2C771.768 161.32 773.515 161.88 775.595 161.88C778.128 161.88 780.168 161.027 781.715 159.32L783.835 161.8C782.875 162.92 781.675 163.773 780.235 164.36C778.821 164.947 777.235 165.24 775.475 165.24C773.235 165.24 771.248 164.787 769.515 163.88C767.781 162.947 766.435 161.653 765.475 160C764.541 158.347 764.075 156.48 764.075 154.4C764.075 152.347 764.528 150.493 765.435 148.84C766.368 147.187 767.635 145.907 769.235 145C770.861 144.067 772.688 143.6 774.715 143.6C776.741 143.6 778.541 144.067 780.115 145C781.715 145.907 782.955 147.187 783.835 148.84C784.741 150.493 785.195 152.387 785.195 154.52ZM774.715 146.84C772.875 146.84 771.328 147.4 770.075 148.52C768.848 149.64 768.128 151.107 767.915 152.92H781.515C781.301 151.133 780.568 149.68 779.315 148.56C778.088 147.413 776.555 146.84 774.715 146.84ZM799.767 165.24C797.607 165.24 795.673 164.773 793.967 163.84C792.287 162.907 790.967 161.627 790.007 160C789.047 158.347 788.567 156.48 788.567 154.4C788.567 152.32 789.047 150.467 790.007 148.84C790.967 147.187 792.287 145.907 793.967 145C795.673 144.067 797.607 143.6 799.767 143.6C801.687 143.6 803.393 143.987 804.887 144.76C806.407 145.533 807.58 146.653 808.407 148.12L805.487 150C804.82 148.987 803.993 148.227 803.007 147.72C802.02 147.213 800.927 146.96 799.727 146.96C798.34 146.96 797.087 147.267 795.967 147.88C794.873 148.493 794.007 149.373 793.367 150.52C792.753 151.64 792.447 152.933 792.447 154.4C792.447 155.893 792.753 157.213 793.367 158.36C794.007 159.48 794.873 160.347 795.967 160.96C797.087 161.573 798.34 161.88 799.727 161.88C800.927 161.88 802.02 161.627 803.007 161.12C803.993 160.613 804.82 159.853 805.487 158.84L808.407 160.68C807.58 162.147 806.407 163.28 804.887 164.08C803.393 164.853 801.687 165.24 799.767 165.24ZM825.572 163.76C825.012 164.24 824.318 164.613 823.492 164.88C822.665 165.12 821.812 165.24 820.932 165.24C818.798 165.24 817.145 164.667 815.972 163.52C814.798 162.373 814.212 160.733 814.212 158.6V146.96H810.612V143.8H814.212V139.16H818.052V143.8H824.132V146.96H818.052V158.44C818.052 159.587 818.332 160.467 818.892 161.08C819.478 161.693 820.305 162 821.372 162C822.545 162 823.545 161.667 824.372 161L825.572 163.76Z" fill="url(#paint1_linear_409_111)"/>
<g filter="url(#filter6_f_409_111)">
<rect x="1141" width="4" height="60" fill="white"/>
</g>
<g filter="url(#filter7_f_409_111)">
<circle cx="1143" cy="67" r="8.5" stroke="white" stroke-width="3"/>
</g>
<g filter="url(#filter8_f_409_111)">
<rect x="1141" width="4" height="60" fill="white"/>
</g>
<g filter="url(#filter9_f_409_111)">
<rect x="217" y="280" width="4" height="70" fill="white"/>
</g>
<g filter="url(#filter10_f_409_111)">
<rect x="217" y="280" width="4" height="70" fill="white"/>
</g>
<g filter="url(#filter11_f_409_111)">
<circle cx="1143" cy="67" r="8.5" stroke="white" stroke-width="3"/>
</g>
<g filter="url(#filter12_f_409_111)">
<circle cx="219" cy="270" r="8.5" stroke="white" stroke-width="3"/>
</g>
<g filter="url(#filter13_f_409_111)">
<circle cx="219" cy="270" r="8.5" stroke="white" stroke-width="3"/>
</g>
<g filter="url(#filter14_f_409_111)">
<circle cx="1085.65" cy="302.655" r="8.5" transform="rotate(119.912 1085.65 302.655)" stroke="white" stroke-width="3"/>
</g>
<g filter="url(#filter15_f_409_111)">
<circle cx="1085.65" cy="301.655" r="8.5" transform="rotate(119.912 1085.65 301.655)" stroke="white" stroke-width="3"/>
</g>
<g filter="url(#filter16_f_409_111)">
<rect x="1400.01" y="280.072" width="4" height="60" transform="rotate(90.0536 1400.01 280.072)" fill="white"/>
</g>
<g filter="url(#filter17_f_409_111)">
<circle cx="1333.01" cy="282.009" r="8.5" transform="rotate(90.0536 1333.01 282.009)" stroke="white" stroke-width="3"/>
</g>
<g filter="url(#filter18_f_409_111)">
<rect x="1400.01" y="280.072" width="4" height="60" transform="rotate(90.0536 1400.01 280.072)" fill="white"/>
</g>
<g filter="url(#filter19_f_409_111)">
<circle cx="1333.01" cy="282.009" r="8.5" transform="rotate(90.0536 1333.01 282.009)" stroke="white" stroke-width="3"/>
</g>
<g filter="url(#filter20_f_409_111)">
<rect x="-7.03723" y="189.239" width="4" height="60" transform="rotate(-119.386 -7.03723 189.239)" fill="white"/>
</g>
<g filter="url(#filter21_f_409_111)">
<rect x="59" y="157" width="4" height="60" transform="rotate(-90 59 157)" fill="white"/>
</g>
<g filter="url(#filter22_f_409_111)">
<circle cx="50.3606" cy="154.62" r="8.5" transform="rotate(-119.386 50.3606 154.62)" stroke="white" stroke-width="3"/>
</g>
<g filter="url(#filter23_f_409_111)">
<rect x="-7.03723" y="189.239" width="4" height="60" transform="rotate(-119.386 -7.03723 189.239)" fill="white"/>
</g>
<g filter="url(#filter24_f_409_111)">
<rect x="59" y="157" width="4" height="60" transform="rotate(-90 59 157)" fill="white"/>
</g>
<g filter="url(#filter25_f_409_111)">
<rect x="229" y="272" width="4" height="60" transform="rotate(-90 229 272)" fill="white"/>
</g>
<g filter="url(#filter26_f_409_111)">
<rect x="229" y="272" width="4" height="60" transform="rotate(-90 229 272)" fill="white"/>
</g>
<g filter="url(#filter27_f_409_111)">
<rect x="72.9932" y="66.7061" width="4" height="70" transform="rotate(-170.543 72.9932 66.7061)" fill="white"/>
</g>
<g filter="url(#filter28_f_409_111)">
<rect x="72.9932" y="66.7061" width="4" height="70" transform="rotate(-170.543 72.9932 66.7061)" fill="white"/>
</g>
<g filter="url(#filter29_f_409_111)">
<circle cx="69.3773" cy="76.2409" r="8.5" transform="rotate(-170.543 69.3773 76.2409)" stroke="white" stroke-width="3"/>
</g>
<g filter="url(#filter30_f_409_111)">
<circle cx="69.3773" cy="76.2409" r="8.5" transform="rotate(-170.543 69.3773 76.2409)" stroke="white" stroke-width="3"/>
</g>
<g filter="url(#filter31_f_409_111)">
<rect x="59.8418" y="72.625" width="4" height="60" transform="rotate(99.4569 59.8418 72.625)" fill="white"/>
</g>
<g filter="url(#filter32_f_409_111)">
<rect x="59.8418" y="72.625" width="4" height="60" transform="rotate(99.4569 59.8418 72.625)" fill="white"/>
</g>
<g filter="url(#filter33_f_409_111)">
<circle cx="50.3606" cy="154.62" r="8.5" transform="rotate(-119.386 50.3606 154.62)" stroke="white" stroke-width="3"/>
</g>
<g filter="url(#filter34_f_409_111)">
<rect x="562.865" y="53.4224" width="4" height="60" transform="rotate(101.646 562.865 53.4224)" fill="white"/>
</g>
<g filter="url(#filter35_f_409_111)">
<rect x="491.886" y="34.3892" width="4" height="60" transform="rotate(131.033 491.886 34.3892)" fill="white"/>
</g>
<g filter="url(#filter36_f_409_111)">
<circle cx="496.841" cy="41.856" r="8.5" transform="rotate(101.646 496.841 41.856)" stroke="white" stroke-width="3"/>
</g>
<g filter="url(#filter37_f_409_111)">
<rect x="562.865" y="53.4224" width="4" height="60" transform="rotate(101.646 562.865 53.4224)" fill="white"/>
</g>
<g filter="url(#filter38_f_409_111)">
<rect x="491.886" y="34.3892" width="4" height="60" transform="rotate(131.033 491.886 34.3892)" fill="white"/>
</g>
<g filter="url(#filter39_f_409_111)">
<circle cx="496.841" cy="41.856" r="8.5" transform="rotate(101.646 496.841 41.856)" stroke="white" stroke-width="3"/>
</g>
<g filter="url(#filter40_f_409_111)">
<rect x="816.632" y="57.1738" width="4" height="60" transform="rotate(-131.15 816.632 57.1738)" fill="white"/>
</g>
<g filter="url(#filter41_f_409_111)">
<rect x="874.709" y="12.1484" width="4" height="60" transform="rotate(-101.764 874.709 12.1484)" fill="white"/>
</g>
<g filter="url(#filter42_f_409_111)">
<circle cx="865.766" cy="11.5802" r="8.5" transform="rotate(-131.15 865.766 11.5802)" stroke="white" stroke-width="3"/>
</g>
<g filter="url(#filter43_f_409_111)">
<rect x="816.632" y="57.1738" width="4" height="60" transform="rotate(-131.15 816.632 57.1738)" fill="white"/>
</g>
<g filter="url(#filter44_f_409_111)">
<rect x="874.709" y="12.1484" width="4" height="60" transform="rotate(-101.764 874.709 12.1484)" fill="white"/>
</g>
<g filter="url(#filter45_f_409_111)">
<circle cx="865.766" cy="11.5802" r="8.5" transform="rotate(-131.15 865.766 11.5802)" stroke="white" stroke-width="3"/>
</g>
<g filter="url(#filter46_f_409_111)">
<rect x="658.9" y="314.296" width="4" height="60" transform="rotate(150.645 658.9 314.296)" fill="white"/>
</g>
<g filter="url(#filter47_f_409_111)">
<rect x="658.9" y="314.296" width="4" height="60" transform="rotate(150.645 658.9 314.296)" fill="white"/>
</g>
<g filter="url(#filter48_f_409_111)">
<circle cx="661.061" cy="322.992" r="8.5" transform="rotate(121.258 661.061 322.992)" stroke="white" stroke-width="3"/>
</g>
<defs>
<filter id="filter0_f_409_111" x="1091.36" y="303.366" width="83.7395" height="51.3452" filterUnits="userSpaceOnUse" color-interpolation-filters="sRGB">
<feFlood flood-opacity="0" result="BackgroundImageFix"/>
<feBlend mode="normal" in="SourceGraphic" in2="BackgroundImageFix" result="shape"/>
<feGaussianBlur stdDeviation="0.5" result="effect1_foregroundBlur_409_111"/>
</filter>
<filter id="filter1_f_409_111" x="1088.36" y="300.366" width="89.7395" height="57.3452" filterUnits="userSpaceOnUse" color-interpolation-filters="sRGB">
<feFlood flood-opacity="0" result="BackgroundImageFix"/>
<feBlend mode="normal" in="SourceGraphic" in2="BackgroundImageFix" result="shape"/>
<feGaussianBlur stdDeviation="2" result="effect1_foregroundBlur_409_111"/>
</filter>
<filter id="filter2_f_409_111" x="665.007" y="323.915" width="55.3657" height="36.5532" filterUnits="userSpaceOnUse" color-interpolation-filters="sRGB">
<feFlood flood-opacity="0" result="BackgroundImageFix"/>
<feBlend mode="normal" in="SourceGraphic" in2="BackgroundImageFix" result="shape"/>
<feGaussianBlur stdDeviation="0.5" result="effect1_foregroundBlur_409_111"/>
</filter>
<filter id="filter3_f_409_111" x="650.06" y="311.991" width="22.0029" height="22.0029" filterUnits="userSpaceOnUse" color-interpolation-filters="sRGB">
<feFlood flood-opacity="0" result="BackgroundImageFix"/>
<feBlend mode="normal" in="SourceGraphic" in2="BackgroundImageFix" result="shape"/>
<feGaussianBlur stdDeviation="0.5" result="effect1_foregroundBlur_409_111"/>
</filter>
<filter id="filter4_f_409_111" x="662.007" y="320.915" width="61.3657" height="42.5532" filterUnits="userSpaceOnUse" color-interpolation-filters="sRGB">
<feFlood flood-opacity="0" result="BackgroundImageFix"/>
<feBlend mode="normal" in="SourceGraphic" in2="BackgroundImageFix" result="shape"/>
<feGaussianBlur stdDeviation="2" result="effect1_foregroundBlur_409_111"/>
</filter>
<filter id="filter5_f_409_111" x="603.398" y="173.071" width="189.314" height="32.0288" filterUnits="userSpaceOnUse" color-interpolation-filters="sRGB">
<feFlood flood-opacity="0" result="BackgroundImageFix"/>
<feBlend mode="normal" in="SourceGraphic" in2="BackgroundImageFix" result="shape"/>
<feGaussianBlur stdDeviation="3" result="effect1_foregroundBlur_409_111"/>
</filter>
<filter id="filter6_f_409_111" x="1140" y="-1" width="6" height="62" filterUnits="userSpaceOnUse" color-interpolation-filters="sRGB">
<feFlood flood-opacity="0" result="BackgroundImageFix"/>
<feBlend mode="normal" in="SourceGraphic" in2="BackgroundImageFix" result="shape"/>
<feGaussianBlur stdDeviation="0.5" result="effect1_foregroundBlur_409_111"/>
</filter>
<filter id="filter7_f_409_111" x="1132" y="56" width="22" height="22" filterUnits="userSpaceOnUse" color-interpolation-filters="sRGB">
<feFlood flood-opacity="0" result="BackgroundImageFix"/>
<feBlend mode="normal" in="SourceGraphic" in2="BackgroundImageFix" result="shape"/>
<feGaussianBlur stdDeviation="0.5" result="effect1_foregroundBlur_409_111"/>
</filter>
<filter id="filter8_f_409_111" x="1137" y="-4" width="12" height="68" filterUnits="userSpaceOnUse" color-interpolation-filters="sRGB">
<feFlood flood-opacity="0" result="BackgroundImageFix"/>
<feBlend mode="normal" in="SourceGraphic" in2="BackgroundImageFix" result="shape"/>
<feGaussianBlur stdDeviation="2" result="effect1_foregroundBlur_409_111"/>
</filter>
<filter id="filter9_f_409_111" x="216" y="279" width="6" height="72" filterUnits="userSpaceOnUse" color-interpolation-filters="sRGB">
<feFlood flood-opacity="0" result="BackgroundImageFix"/>
<feBlend mode="normal" in="SourceGraphic" in2="BackgroundImageFix" result="shape"/>
<feGaussianBlur stdDeviation="0.5" result="effect1_foregroundBlur_409_111"/>
</filter>
<filter id="filter10_f_409_111" x="213" y="276" width="12" height="78" filterUnits="userSpaceOnUse" color-interpolation-filters="sRGB">
<feFlood flood-opacity="0" result="BackgroundImageFix"/>
<feBlend mode="normal" in="SourceGraphic" in2="BackgroundImageFix" result="shape"/>
<feGaussianBlur stdDeviation="2" result="effect1_foregroundBlur_409_111"/>
</filter>
<filter id="filter11_f_409_111" x="1129" y="53" width="28" height="28" filterUnits="userSpaceOnUse" color-interpolation-filters="sRGB">
<feFlood flood-opacity="0" result="BackgroundImageFix"/>
<feBlend mode="normal" in="SourceGraphic" in2="BackgroundImageFix" result="shape"/>
<feGaussianBlur stdDeviation="2" result="effect1_foregroundBlur_409_111"/>
</filter>
<filter id="filter12_f_409_111" x="208" y="259" width="22" height="22" filterUnits="userSpaceOnUse" color-interpolation-filters="sRGB">
<feFlood flood-opacity="0" result="BackgroundImageFix"/>
<feBlend mode="normal" in="SourceGraphic" in2="BackgroundImageFix" result="shape"/>
<feGaussianBlur stdDeviation="0.5" result="effect1_foregroundBlur_409_111"/>
</filter>
<filter id="filter13_f_409_111" x="205" y="256" width="28" height="28" filterUnits="userSpaceOnUse" color-interpolation-filters="sRGB">
<feFlood flood-opacity="0" result="BackgroundImageFix"/>
<feBlend mode="normal" in="SourceGraphic" in2="BackgroundImageFix" result="shape"/>
<feGaussianBlur stdDeviation="2" result="effect1_foregroundBlur_409_111"/>
</filter>
<filter id="filter14_f_409_111" x="1074.65" y="291.653" width="22.0034" height="22.0034" filterUnits="userSpaceOnUse" color-interpolation-filters="sRGB">
<feFlood flood-opacity="0" result="BackgroundImageFix"/>
<feBlend mode="normal" in="SourceGraphic" in2="BackgroundImageFix" result="shape"/>
<feGaussianBlur stdDeviation="0.5" result="effect1_foregroundBlur_409_111"/>
</filter>
<filter id="filter15_f_409_111" x="1071.65" y="287.653" width="28.0034" height="28.0034" filterUnits="userSpaceOnUse" color-interpolation-filters="sRGB">
<feFlood flood-opacity="0" result="BackgroundImageFix"/>
<feBlend mode="normal" in="SourceGraphic" in2="BackgroundImageFix" result="shape"/>
<feGaussianBlur stdDeviation="2" result="effect1_foregroundBlur_409_111"/>
</filter>
<filter id="filter16_f_409_111" x="1339.01" y="279.016" width="62.0037" height="6.05615" filterUnits="userSpaceOnUse" color-interpolation-filters="sRGB">
<feFlood flood-opacity="0" result="BackgroundImageFix"/>
<feBlend mode="normal" in="SourceGraphic" in2="BackgroundImageFix" result="shape"/>
<feGaussianBlur stdDeviation="0.5" result="effect1_foregroundBlur_409_111"/>
</filter>
<filter id="filter17_f_409_111" x="1322.01" y="271.009" width="22" height="22" filterUnits="userSpaceOnUse" color-interpolation-filters="sRGB">
<feFlood flood-opacity="0" result="BackgroundImageFix"/>
<feBlend mode="normal" in="SourceGraphic" in2="BackgroundImageFix" result="shape"/>
<feGaussianBlur stdDeviation="0.5" result="effect1_foregroundBlur_409_111"/>
</filter>
<filter id="filter18_f_409_111" x="1336.01" y="276.016" width="68.0037" height="12.0562" filterUnits="userSpaceOnUse" color-interpolation-filters="sRGB">
<feFlood flood-opacity="0" result="BackgroundImageFix"/>
<feBlend mode="normal" in="SourceGraphic" in2="BackgroundImageFix" result="shape"/>
<feGaussianBlur stdDeviation="2" result="effect1_foregroundBlur_409_111"/>
</filter>
<filter id="filter19_f_409_111" x="1319.01" y="268.009" width="28" height="28" filterUnits="userSpaceOnUse" color-interpolation-filters="sRGB">
<feFlood flood-opacity="0" result="BackgroundImageFix"/>
<feBlend mode="normal" in="SourceGraphic" in2="BackgroundImageFix" result="shape"/>
<feGaussianBlur stdDeviation="2" result="effect1_foregroundBlur_409_111"/>
</filter>
<filter id="filter20_f_409_111" x="-10" y="155.312" width="56.2427" height="34.9268" filterUnits="userSpaceOnUse" color-interpolation-filters="sRGB">
<feFlood flood-opacity="0" result="BackgroundImageFix"/>
<feBlend mode="normal" in="SourceGraphic" in2="BackgroundImageFix" result="shape"/>
<feGaussianBlur stdDeviation="0.5" result="effect1_foregroundBlur_409_111"/>
</filter>
<filter id="filter21_f_409_111" x="58" y="152" width="62" height="6" filterUnits="userSpaceOnUse" color-interpolation-filters="sRGB">
<feFlood flood-opacity="0" result="BackgroundImageFix"/>
<feBlend mode="normal" in="SourceGraphic" in2="BackgroundImageFix" result="shape"/>
<feGaussianBlur stdDeviation="0.5" result="effect1_foregroundBlur_409_111"/>
</filter>
<filter id="filter22_f_409_111" x="39.3589" y="143.618" width="22.0035" height="22.0034" filterUnits="userSpaceOnUse" color-interpolation-filters="sRGB">
<feFlood flood-opacity="0" result="BackgroundImageFix"/>
<feBlend mode="normal" in="SourceGraphic" in2="BackgroundImageFix" result="shape"/>
<feGaussianBlur stdDeviation="0.5" result="effect1_foregroundBlur_409_111"/>
</filter>
<filter id="filter23_f_409_111" x="-13" y="152.312" width="62.2427" height="40.9268" filterUnits="userSpaceOnUse" color-interpolation-filters="sRGB">
<feFlood flood-opacity="0" result="BackgroundImageFix"/>
<feBlend mode="normal" in="SourceGraphic" in2="BackgroundImageFix" result="shape"/>
<feGaussianBlur stdDeviation="2" result="effect1_foregroundBlur_409_111"/>
</filter>
<filter id="filter24_f_409_111" x="55" y="149" width="68" height="12" filterUnits="userSpaceOnUse" color-interpolation-filters="sRGB">
<feFlood flood-opacity="0" result="BackgroundImageFix"/>
<feBlend mode="normal" in="SourceGraphic" in2="BackgroundImageFix" result="shape"/>
<feGaussianBlur stdDeviation="2" result="effect1_foregroundBlur_409_111"/>
</filter>
<filter id="filter25_f_409_111" x="228" y="267" width="62" height="6" filterUnits="userSpaceOnUse" color-interpolation-filters="sRGB">
<feFlood flood-opacity="0" result="BackgroundImageFix"/>
<feBlend mode="normal" in="SourceGraphic" in2="BackgroundImageFix" result="shape"/>
<feGaussianBlur stdDeviation="0.5" result="effect1_foregroundBlur_409_111"/>
</filter>
<filter id="filter26_f_409_111" x="225" y="264" width="68" height="12" filterUnits="userSpaceOnUse" color-interpolation-filters="sRGB">
<feFlood flood-opacity="0" result="BackgroundImageFix"/>
<feBlend mode="normal" in="SourceGraphic" in2="BackgroundImageFix" result="shape"/>
<feGaussianBlur stdDeviation="2" result="effect1_foregroundBlur_409_111"/>
</filter>
<filter id="filter27_f_409_111" x="68.0475" y="-4" width="17.4471" height="71.7061" filterUnits="userSpaceOnUse" color-interpolation-filters="sRGB">
<feFlood flood-opacity="0" result="BackgroundImageFix"/>
<feBlend mode="normal" in="SourceGraphic" in2="BackgroundImageFix" result="shape"/>
<feGaussianBlur stdDeviation="0.5" result="effect1_foregroundBlur_409_111"/>
</filter>
<filter id="filter28_f_409_111" x="65.0475" y="-7" width="23.4471" height="77.7061" filterUnits="userSpaceOnUse" color-interpolation-filters="sRGB">
<feFlood flood-opacity="0" result="BackgroundImageFix"/>
<feBlend mode="normal" in="SourceGraphic" in2="BackgroundImageFix" result="shape"/>
<feGaussianBlur stdDeviation="2" result="effect1_foregroundBlur_409_111"/>
</filter>
<filter id="filter29_f_409_111" x="58.3759" y="65.2393" width="22.0031" height="22.0034" filterUnits="userSpaceOnUse" color-interpolation-filters="sRGB">
<feFlood flood-opacity="0" result="BackgroundImageFix"/>
<feBlend mode="normal" in="SourceGraphic" in2="BackgroundImageFix" result="shape"/>
<feGaussianBlur stdDeviation="0.5" result="effect1_foregroundBlur_409_111"/>
</filter>
<filter id="filter30_f_409_111" x="55.3759" y="62.2393" width="28.0031" height="28.0034" filterUnits="userSpaceOnUse" color-interpolation-filters="sRGB">
<feFlood flood-opacity="0" result="BackgroundImageFix"/>
<feBlend mode="normal" in="SourceGraphic" in2="BackgroundImageFix" result="shape"/>
<feGaussianBlur stdDeviation="2" result="effect1_foregroundBlur_409_111"/>
</filter>
<filter id="filter31_f_409_111" x="-1" y="61.7666" width="61.8418" height="15.8042" filterUnits="userSpaceOnUse" color-interpolation-filters="sRGB">
<feFlood flood-opacity="0" result="BackgroundImageFix"/>
<feBlend mode="normal" in="SourceGraphic" in2="BackgroundImageFix" result="shape"/>
<feGaussianBlur stdDeviation="0.5" result="effect1_foregroundBlur_409_111"/>
</filter>
<filter id="filter32_f_409_111" x="-4" y="58.7666" width="67.8418" height="21.8042" filterUnits="userSpaceOnUse" color-interpolation-filters="sRGB">
<feFlood flood-opacity="0" result="BackgroundImageFix"/>
<feBlend mode="normal" in="SourceGraphic" in2="BackgroundImageFix" result="shape"/>
<feGaussianBlur stdDeviation="2" result="effect1_foregroundBlur_409_111"/>
</filter>
<filter id="filter33_f_409_111" x="36.3589" y="140.618" width="28.0035" height="28.0034" filterUnits="userSpaceOnUse" color-interpolation-filters="sRGB">
<feFlood flood-opacity="0" result="BackgroundImageFix"/>
<feBlend mode="normal" in="SourceGraphic" in2="BackgroundImageFix" result="shape"/>
<feGaussianBlur stdDeviation="2" result="effect1_foregroundBlur_409_111"/>
</filter>
<filter id="filter34_f_409_111" x="502.293" y="40.3101" width="61.5722" height="18.0298" filterUnits="userSpaceOnUse" color-interpolation-filters="sRGB">
<feFlood flood-opacity="0" result="BackgroundImageFix"/>
<feBlend mode="normal" in="SourceGraphic" in2="BackgroundImageFix" result="shape"/>
<feGaussianBlur stdDeviation="0.5" result="effect1_foregroundBlur_409_111"/>
</filter>
<filter id="filter35_f_409_111" x="443" y="-6" width="49.8862" height="44.4067" filterUnits="userSpaceOnUse" color-interpolation-filters="sRGB">
<feFlood flood-opacity="0" result="BackgroundImageFix"/>
<feBlend mode="normal" in="SourceGraphic" in2="BackgroundImageFix" result="shape"/>
<feGaussianBlur stdDeviation="0.5" result="effect1_foregroundBlur_409_111"/>
</filter>
<filter id="filter36_f_409_111" x="485.839" y="30.854" width="22.004" height="22.0039" filterUnits="userSpaceOnUse" color-interpolation-filters="sRGB">
<feFlood flood-opacity="0" result="BackgroundImageFix"/>
<feBlend mode="normal" in="SourceGraphic" in2="BackgroundImageFix" result="shape"/>
<feGaussianBlur stdDeviation="0.5" result="effect1_foregroundBlur_409_111"/>
</filter>
<filter id="filter37_f_409_111" x="499.293" y="37.3101" width="67.5722" height="24.0298" filterUnits="userSpaceOnUse" color-interpolation-filters="sRGB">
<feFlood flood-opacity="0" result="BackgroundImageFix"/>
<feBlend mode="normal" in="SourceGraphic" in2="BackgroundImageFix" result="shape"/>
<feGaussianBlur stdDeviation="2" result="effect1_foregroundBlur_409_111"/>
</filter>
<filter id="filter38_f_409_111" x="440" y="-9" width="55.8862" height="50.4067" filterUnits="userSpaceOnUse" color-interpolation-filters="sRGB">
<feFlood flood-opacity="0" result="BackgroundImageFix"/>
<feBlend mode="normal" in="SourceGraphic" in2="BackgroundImageFix" result="shape"/>
<feGaussianBlur stdDeviation="2" result="effect1_foregroundBlur_409_111"/>
</filter>
<filter id="filter39_f_409_111" x="482.839" y="27.854" width="28.004" height="28.0039" filterUnits="userSpaceOnUse" color-interpolation-filters="sRGB">
<feFlood flood-opacity="0" result="BackgroundImageFix"/>
<feBlend mode="normal" in="SourceGraphic" in2="BackgroundImageFix" result="shape"/>
<feGaussianBlur stdDeviation="2" result="effect1_foregroundBlur_409_111"/>
</filter>
<filter id="filter40_f_409_111" x="813" y="13.6802" width="49.8117" height="44.4937" filterUnits="userSpaceOnUse" color-interpolation-filters="sRGB">
<feFlood flood-opacity="0" result="BackgroundImageFix"/>
<feBlend mode="normal" in="SourceGraphic" in2="BackgroundImageFix" result="shape"/>
<feGaussianBlur stdDeviation="0.5" result="effect1_foregroundBlur_409_111"/>
</filter>
<filter id="filter41_f_409_111" x="872.894" y="-5" width="61.5553" height="18.1484" filterUnits="userSpaceOnUse" color-interpolation-filters="sRGB">
<feFlood flood-opacity="0" result="BackgroundImageFix"/>
<feBlend mode="normal" in="SourceGraphic" in2="BackgroundImageFix" result="shape"/>
<feGaussianBlur stdDeviation="0.5" result="effect1_foregroundBlur_409_111"/>
</filter>
<filter id="filter42_f_409_111" x="854.766" y="0.580078" width="22.0003" height="22.0005" filterUnits="userSpaceOnUse" color-interpolation-filters="sRGB">
<feFlood flood-opacity="0" result="BackgroundImageFix"/>
<feBlend mode="normal" in="SourceGraphic" in2="BackgroundImageFix" result="shape"/>
<feGaussianBlur stdDeviation="0.5" result="effect1_foregroundBlur_409_111"/>
</filter>
<filter id="filter43_f_409_111" x="810" y="10.6802" width="55.8117" height="50.4937" filterUnits="userSpaceOnUse" color-interpolation-filters="sRGB">
<feFlood flood-opacity="0" result="BackgroundImageFix"/>
<feBlend mode="normal" in="SourceGraphic" in2="BackgroundImageFix" result="shape"/>
<feGaussianBlur stdDeviation="2" result="effect1_foregroundBlur_409_111"/>
</filter>
<filter id="filter44_f_409_111" x="869.894" y="-8" width="67.5553" height="24.1484" filterUnits="userSpaceOnUse" color-interpolation-filters="sRGB">
<feFlood flood-opacity="0" result="BackgroundImageFix"/>
<feBlend mode="normal" in="SourceGraphic" in2="BackgroundImageFix" result="shape"/>
<feGaussianBlur stdDeviation="2" result="effect1_foregroundBlur_409_111"/>
</filter>
<filter id="filter45_f_409_111" x="851.766" y="-2.41992" width="28.0003" height="28.0005" filterUnits="userSpaceOnUse" color-interpolation-filters="sRGB">
<feFlood flood-opacity="0" result="BackgroundImageFix"/>
<feBlend mode="normal" in="SourceGraphic" in2="BackgroundImageFix" result="shape"/>
<feGaussianBlur stdDeviation="2" result="effect1_foregroundBlur_409_111"/>
</filter>
<filter id="filter46_f_409_111" x="625" y="261" width="34.8999" height="56.2568" filterUnits="userSpaceOnUse" color-interpolation-filters="sRGB">
<feFlood flood-opacity="0" result="BackgroundImageFix"/>
<feBlend mode="normal" in="SourceGraphic" in2="BackgroundImageFix" result="shape"/>
<feGaussianBlur stdDeviation="0.5" result="effect1_foregroundBlur_409_111"/>
</filter>
<filter id="filter47_f_409_111" x="622" y="258" width="40.8999" height="62.2568" filterUnits="userSpaceOnUse" color-interpolation-filters="sRGB">
<feFlood flood-opacity="0" result="BackgroundImageFix"/>
<feBlend mode="normal" in="SourceGraphic" in2="BackgroundImageFix" result="shape"/>
<feGaussianBlur stdDeviation="2" result="effect1_foregroundBlur_409_111"/>
</filter>
<filter id="filter48_f_409_111" x="647.06" y="308.991" width="28.0029" height="28.0029" filterUnits="userSpaceOnUse" color-interpolation-filters="sRGB">
<feFlood flood-opacity="0" result="BackgroundImageFix"/>
<feBlend mode="normal" in="SourceGraphic" in2="BackgroundImageFix" result="shape"/>
<feGaussianBlur stdDeviation="2" result="effect1_foregroundBlur_409_111"/>
</filter>
<linearGradient id="paint0_linear_409_111" x1="728" y1="187" x2="788" y2="187" gradientUnits="userSpaceOnUse">
<stop stop-color="#6A8DE3"/>
<stop offset="1" stop-color="#900789"/>
</linearGradient>
<linearGradient id="paint1_linear_409_111" x1="654" y1="150" x2="827" y2="150" gradientUnits="userSpaceOnUse">
<stop stop-color="#6894E8"/>
<stop offset="1" stop-color="#930084"/>
</linearGradient>
</defs>
</svg>
