<svg width="1256" height="350" viewBox="0 0 1256 350" fill="none" xmlns="http://www.w3.org/2000/svg">
<path d="M66.9916 143.25C73.5916 145.05 78.7416 148.2 82.4416 152.7C86.1416 157.1 87.9916 162.4 87.9916 168.6C87.9916 174.8 85.9916 180.25 81.9916 184.95C78.0916 189.55 72.8416 193.1 66.2416 195.6C59.7416 198 52.6416 199.2 44.9416 199.2C37.9416 199.2 30.9916 198.15 24.0916 196.05C17.1916 193.95 10.8916 190.8 5.1916 186.6L10.4416 175.5C15.0416 179.1 20.1916 181.8 25.8916 183.6C31.5916 185.4 37.3416 186.3 43.1416 186.3C51.5416 186.3 58.5916 184.55 64.2916 181.05C69.9916 177.45 72.8416 172.55 72.8416 166.35C72.8416 161.05 70.6916 157 66.3916 154.2C62.0916 151.3 56.0416 149.85 48.2416 149.85H24.8416L24.8416 137.7H47.1916C53.8916 137.7 59.0916 136.35 62.7916 133.65C66.5916 130.85 68.4916 127 68.4916 122.1C68.4916 116.6 66.0416 112.25 61.1416 109.05C56.2416 105.85 50.0416 104.25 42.5416 104.25C37.6416 104.25 32.6416 104.95 27.5416 106.35C22.5416 107.75 17.7916 109.85 13.2916 112.65L8.4916 100.35C13.7916 97.35 19.3916 95.1 25.2916 93.6C31.1916 92.1 37.0916 91.35 42.9916 91.35C50.3916 91.35 57.1916 92.5 63.3916 94.8C69.5916 97.1 74.4916 100.45 78.0916 104.85C81.7916 109.25 83.6416 114.4 83.6416 120.3C83.6416 125.6 82.1416 130.25 79.1416 134.25C76.2416 138.25 72.1916 141.25 66.9916 143.25ZM219.498 117.75C230.498 117.75 238.898 120.45 244.698 125.85C250.598 131.25 253.548 139.3 253.548 150V198H239.898V187.5C237.498 191.2 234.048 194.05 229.548 196.05C225.148 197.95 219.898 198.9 213.798 198.9C204.898 198.9 197.748 196.75 192.348 192.45C187.048 188.15 184.398 182.5 184.398 175.5C184.398 168.5 186.948 162.9 192.048 158.7C197.148 154.4 205.248 152.25 216.348 152.25H239.148V149.4C239.148 143.2 237.348 138.45 233.748 135.15C230.148 131.85 224.848 130.2 217.848 130.2C213.148 130.2 208.548 131 204.048 132.6C199.548 134.1 195.748 136.15 192.648 138.75L186.648 127.95C190.748 124.65 195.648 122.15 201.348 120.45C207.048 118.65 213.098 117.75 219.498 117.75ZM216.198 187.8C221.698 187.8 226.448 186.6 230.448 184.2C234.448 181.7 237.348 178.2 239.148 173.7V162.6H216.948C204.748 162.6 198.648 166.7 198.648 174.9C198.648 178.9 200.198 182.05 203.298 184.35C206.398 186.65 210.698 187.8 216.198 187.8ZM433.695 118.5V198H419.295V131.1L374.445 131.1V198H360.045V118.5L433.695 118.5Z" fill="url(#paint0_linear_409_112)"/>
<path d="M918.599 118.5L880.049 205.95C876.649 214.05 872.649 219.75 868.049 223.05C863.549 226.35 858.099 228 851.699 228C847.799 228 843.999 227.35 840.299 226.05C836.699 224.85 833.699 223.05 831.299 220.65L837.449 209.85C841.549 213.75 846.299 215.7 851.699 215.7C855.199 215.7 858.099 214.75 860.399 212.85C862.799 211.05 864.949 207.9 866.849 203.4L869.399 197.85L834.299 118.5H849.299L877.049 182.1L904.499 118.5H918.599ZM1048.56 198.9C1040.46 198.9 1033.21 197.15 1026.81 193.65C1020.51 190.15 1015.56 185.35 1011.96 179.25C1008.36 173.05 1006.56 166.05 1006.56 158.25C1006.56 150.45 1008.36 143.5 1011.96 137.4C1015.56 131.2 1020.51 126.4 1026.81 123C1033.21 119.5 1040.46 117.75 1048.56 117.75C1055.76 117.75 1062.16 119.2 1067.76 122.1C1073.46 125 1077.86 129.2 1080.96 134.7L1070.01 141.75C1067.51 137.95 1064.41 135.1 1060.71 133.2C1057.01 131.3 1052.91 130.35 1048.41 130.35C1043.21 130.35 1038.51 131.5 1034.31 133.8C1030.21 136.1 1026.96 139.4 1024.56 143.7C1022.26 147.9 1021.11 152.75 1021.11 158.25C1021.11 163.85 1022.26 168.8 1024.56 173.1C1026.96 177.3 1030.21 180.55 1034.31 182.85C1038.51 185.15 1043.21 186.3 1048.41 186.3C1052.91 186.3 1057.01 185.35 1060.71 183.45C1064.41 181.55 1067.51 178.7 1070.01 174.9L1080.96 181.8C1077.86 187.3 1073.46 191.55 1067.76 194.55C1062.16 197.45 1055.76 198.9 1048.56 198.9ZM1211.07 164.4H1194.57V198H1180.17V118.5H1194.57V152.1H1211.37L1237.17 118.5H1252.62L1222.47 156.75L1254.72 198H1237.77L1211.07 164.4Z" fill="url(#paint1_linear_409_112)"/>
<g filter="url(#filter0_f_409_112)">
<circle cx="645" cy="172" r="152" fill="#C2C2C2"/>
</g>
<circle cx="645" cy="172" r="150" fill="url(#paint2_linear_409_112)"/>
<g filter="url(#filter1_b_409_112)">
<circle cx="645" cy="172" r="150" fill="white" fill-opacity="0.1"/>
</g>
<g filter="url(#filter2_f_409_112)">
<circle cx="554" cy="160" r="50" fill="#B5C1FA" fill-opacity="0.8"/>
</g>
<path d="M641.834 134.52V138H621.714V135.28L633.114 124.28C634.501 122.947 635.434 121.8 635.914 120.84C636.394 119.853 636.634 118.867 636.634 117.88C636.634 116.413 636.114 115.28 635.074 114.48C634.061 113.653 632.594 113.24 630.674 113.24C627.581 113.24 625.194 114.253 623.514 116.28L620.794 113.92C621.888 112.587 623.314 111.547 625.074 110.8C626.861 110.053 628.848 109.68 631.034 109.68C633.968 109.68 636.301 110.387 638.034 111.8C639.768 113.187 640.634 115.08 640.634 117.48C640.634 118.973 640.314 120.387 639.674 121.72C639.034 123.053 637.821 124.573 636.034 126.28L627.474 134.52H641.834ZM656.446 138.32C654.233 138.32 652.259 137.76 650.526 136.64C648.819 135.493 647.473 133.84 646.486 131.68C645.499 129.52 645.006 126.96 645.006 124C645.006 121.04 645.499 118.48 646.486 116.32C647.473 114.16 648.819 112.52 650.526 111.4C652.259 110.253 654.233 109.68 656.446 109.68C658.633 109.68 660.579 110.253 662.286 111.4C664.019 112.52 665.379 114.16 666.366 116.32C667.353 118.48 667.846 121.04 667.846 124C667.846 126.96 667.353 129.52 666.366 131.68C665.379 133.84 664.019 135.493 662.286 136.64C660.579 137.76 658.633 138.32 656.446 138.32ZM656.446 134.76C658.686 134.76 660.473 133.84 661.806 132C663.166 130.16 663.846 127.493 663.846 124C663.846 120.507 663.166 117.84 661.806 116C660.473 114.16 658.686 113.24 656.446 113.24C654.179 113.24 652.366 114.16 651.006 116C649.673 117.84 649.006 120.507 649.006 124C649.006 127.493 649.673 130.16 651.006 132C652.366 133.84 654.179 134.76 656.446 134.76Z" fill="white"/>
<path d="M633.536 187.32C631.322 187.32 629.349 186.76 627.616 185.64C625.909 184.493 624.562 182.84 623.576 180.68C622.589 178.52 622.096 175.96 622.096 173C622.096 170.04 622.589 167.48 623.576 165.32C624.562 163.16 625.909 161.52 627.616 160.4C629.349 159.253 631.322 158.68 633.536 158.68C635.722 158.68 637.669 159.253 639.376 160.4C641.109 161.52 642.469 163.16 643.456 165.32C644.442 167.48 644.936 170.04 644.936 173C644.936 175.96 644.442 178.52 643.456 180.68C642.469 182.84 641.109 184.493 639.376 185.64C637.669 186.76 635.722 187.32 633.536 187.32ZM633.536 183.76C635.776 183.76 637.562 182.84 638.896 181C640.256 179.16 640.936 176.493 640.936 173C640.936 169.507 640.256 166.84 638.896 165C637.562 163.16 635.776 162.24 633.536 162.24C631.269 162.24 629.456 163.16 628.096 165C626.762 166.84 626.096 169.507 626.096 173C626.096 176.493 626.762 179.16 628.096 181C629.456 182.84 631.269 183.76 633.536 183.76ZM656.775 170.16C660.775 170.16 663.709 170.92 665.575 172.44C667.469 173.933 668.415 175.987 668.415 178.6C668.415 180.253 668.015 181.747 667.215 183.08C666.442 184.387 665.255 185.427 663.655 186.2C662.082 186.947 660.135 187.32 657.815 187.32C655.842 187.32 653.935 187.027 652.095 186.44C650.255 185.827 648.735 184.987 647.535 183.92L649.375 180.76C650.335 181.667 651.562 182.4 653.055 182.96C654.549 183.493 656.122 183.76 657.775 183.76C659.882 183.76 661.509 183.32 662.655 182.44C663.829 181.533 664.415 180.307 664.415 178.76C664.415 177.08 663.775 175.813 662.495 174.96C661.215 174.08 659.029 173.64 655.935 173.64H649.575L651.055 159H666.855V162.48H654.415L653.655 170.16H656.775Z" fill="white"/>
<path d="M643.67 232.52V236H623.55V233.28L634.95 222.28C636.337 220.947 637.27 219.8 637.75 218.84C638.23 217.853 638.47 216.867 638.47 215.88C638.47 214.413 637.95 213.28 636.91 212.48C635.897 211.653 634.43 211.24 632.51 211.24C629.417 211.24 627.03 212.253 625.35 214.28L622.63 211.92C623.724 210.587 625.15 209.547 626.91 208.8C628.697 208.053 630.684 207.68 632.87 207.68C635.804 207.68 638.137 208.387 639.87 209.8C641.604 211.187 642.47 213.08 642.47 215.48C642.47 216.973 642.15 218.387 641.51 219.72C640.87 221.053 639.657 222.573 637.87 224.28L629.31 232.52H643.67ZM657.679 219.76C660.426 220.027 662.519 220.88 663.959 222.32C665.399 223.733 666.119 225.547 666.119 227.76C666.119 229.36 665.719 230.813 664.919 232.12C664.119 233.4 662.919 234.427 661.319 235.2C659.746 235.947 657.812 236.32 655.519 236.32C653.519 236.32 651.599 236.027 649.759 235.44C647.919 234.827 646.412 233.987 645.239 232.92L647.079 229.76C648.039 230.667 649.266 231.4 650.759 231.96C652.252 232.493 653.839 232.76 655.519 232.76C657.599 232.76 659.212 232.32 660.359 231.44C661.532 230.56 662.119 229.347 662.119 227.8C662.119 226.253 661.546 225.053 660.399 224.2C659.252 223.347 657.519 222.92 655.199 222.92H652.959V220.12L659.999 211.48H646.519V208H664.999V210.72L657.679 219.76Z" fill="white"/>
<rect x="495" y="344" width="300" height="6" rx="3" fill="#E9E9E9"/>
<defs>
<filter id="filter0_f_409_112" x="473" y="0" width="344" height="344" filterUnits="userSpaceOnUse" color-interpolation-filters="sRGB">
<feFlood flood-opacity="0" result="BackgroundImageFix"/>
<feBlend mode="normal" in="SourceGraphic" in2="BackgroundImageFix" result="shape"/>
<feGaussianBlur stdDeviation="10" result="effect1_foregroundBlur_409_112"/>
</filter>
<filter id="filter1_b_409_112" x="475" y="2" width="340" height="340" filterUnits="userSpaceOnUse" color-interpolation-filters="sRGB">
<feFlood flood-opacity="0" result="BackgroundImageFix"/>
<feGaussianBlur in="BackgroundImageFix" stdDeviation="10"/>
<feComposite in2="SourceAlpha" operator="in" result="effect1_backgroundBlur_409_112"/>
<feBlend mode="normal" in="SourceGraphic" in2="effect1_backgroundBlur_409_112" result="shape"/>
</filter>
<filter id="filter2_f_409_112" x="404" y="10" width="300" height="300" filterUnits="userSpaceOnUse" color-interpolation-filters="sRGB">
<feFlood flood-opacity="0" result="BackgroundImageFix"/>
<feBlend mode="normal" in="SourceGraphic" in2="BackgroundImageFix" result="shape"/>
<feGaussianBlur stdDeviation="50" result="effect1_foregroundBlur_409_112"/>
</filter>
<linearGradient id="paint0_linear_409_112" x1="-3.09319e-07" y1="142.633" x2="448" y2="142.633" gradientUnits="userSpaceOnUse">
<stop stop-color="#6894E8"/>
<stop offset="1" stop-color="#930084"/>
</linearGradient>
<linearGradient id="paint1_linear_409_112" x1="753" y1="142.633" x2="1256" y2="142.633" gradientUnits="userSpaceOnUse">
<stop stop-color="#6894E8"/>
<stop offset="1" stop-color="#930084"/>
</linearGradient>
<linearGradient id="paint2_linear_409_112" x1="548" y1="64" x2="740.5" y2="279.5" gradientUnits="userSpaceOnUse">
<stop stop-color="#88A2FF"/>
<stop offset="1" stop-color="#90098A"/>
</linearGradient>
</defs>
</svg>
